<svg xmlns="http://www.w3.org/2000/svg" viewBox="0 0 34 34.420708">
  <style>
    path { fill: #7A7A7A; }
  </style>
  <path stroke-width="1.77771" d="M 22.537109 2.5820312 C 21.097167 2.7064706 20.492115 6.2968573 18.927734 5.4257812 C 18.003327 5.3902272 17.044108 5.5870587 16.244141 5.8359375 C 14.67976 6.9558923 11.212167 6.119393 10.927734 8.7148438 C 11.869918 10.368111 12.367223 12.447844 14.109375 13.443359 C 16.455947 14.865524 11.780599 15.292101 11.140625 13.798828 C 9.5229121 12.447772 8.6349651 10.280075 6.6972656 9.3378906 C 4.8306743 8.7334706 3.0176328 9.9597255 1.7910156 11.115234 C 1.6843533 11.98631 2.3776401 12.571741 2.8398438 12.269531 C 2.4309714 13.976129 3.2490593 12.394458 4.03125 12.75 C 6.2889366 13.727738 6.2695668 16.360189 8.0117188 17.160156 C 9.8960871 19.204518 7.6031362 18.15379 6.5898438 18.722656 C 5.0076855 18.758206 3.6206774 20.963577 4.7050781 21.425781 C 4.971734 22.101309 4.6533025 22.759856 4.7421875 23.275391 C 5.5066011 22.208767 7.0337637 21.639196 7.1582031 21.941406 C 8.4203744 21.088107 10.340422 20.37594 11.335938 21.513672 C 12.402562 22.79362 13.68334 23.984791 14.927734 24.820312 C 14.785518 26.793567 15.213017 28.767578 15.550781 30.6875 C 15.390788 32.340767 17.257378 33.264413 17.470703 34.419922 L 31.033203 34.419922 C 30.913588 32.994109 30.17472 31.710193 30.304688 30.367188 C 30.446904 28.571704 29.629883 26.829012 28.669922 25.353516 C 28.812138 23.966905 27.781287 22.402669 27.603516 20.802734 C 27.834618 19.522785 27.585736 18.04852 27.603516 16.679688 C 27.194644 15.133083 26.58847 13.497342 25.664062 12.164062 C 26.659578 11.310764 28.421097 10.030183 27.443359 8.5546875 C 26.981155 7.5058409 24.455512 7.5590462 26.162109 6.296875 C 26.268772 5.3546908 25.505643 4.4660736 24.652344 4.1816406 L 22.537109 2.5820312 z" />
</svg>
