<?xml version="1.0" encoding="UTF-8" standalone="no"?>
<!-- Created with Inkscape (http://www.inkscape.org/) -->

<svg
   width="15.322632mm"
   height="27.537312mm"
   viewBox="0 0 15.322632 27.537312"
   version="1.1"
   id="svg1"
   inkscape:version="1.4.3 (0d15f75042, 2025-12-25)"
   sodipodi:docname="fav_icon.svg"
   xmlns:inkscape="http://www.inkscape.org/namespaces/inkscape"
   xmlns:sodipodi="http://sodipodi.sourceforge.net/DTD/sodipodi-0.dtd"
   xmlns="http://www.w3.org/2000/svg"
   xmlns:svg="http://www.w3.org/2000/svg">
  <sodipodi:namedview
     id="namedview1"
     pagecolor="#ffffff"
     bordercolor="#000000"
     borderopacity="0.25"
     inkscape:showpageshadow="2"
     inkscape:pageopacity="0.0"
     inkscape:pagecheckerboard="0"
     inkscape:deskcolor="#d1d1d1"
     inkscape:document-units="mm"
     inkscape:zoom="2.205752"
     inkscape:cx="0.6800402"
     inkscape:cy="44.655973"
     inkscape:window-width="1600"
     inkscape:window-height="828"
     inkscape:window-x="0"
     inkscape:window-y="0"
     inkscape:window-maximized="1"
     inkscape:current-layer="layer1" />
  <defs
     id="defs1" />
  <g
     inkscape:label="Layer 1"
     inkscape:groupmode="layer"
     id="layer1"
     transform="translate(-155.78905,-121.12914)">
    <path
       style="fill:#000000;fill-opacity:1;stroke-width:0.282222"
       d="m 167.37452,121.12914 c -0.81406,0.0713 -1.14945,1.09356 -2.02978,0.60178 -0.52061,-0.0163 -1.05964,-0.10041 -1.50978,0.22484 -0.87702,0.62839 -2.82763,0.0138 -2.99134,1.46169 0.52697,0.92524 0.84481,2.0963 1.82315,2.66237 1.3202,0.8047 -1.22916,1.04585 -1.5946,0.2128 -0.91168,-0.7616 -1.4102,-1.98411 -2.50426,-2.51647 -1.04444,-0.33998 -2.06601,0.34647 -2.7735,0.99775 -0.0556,0.48954 0.33378,0.81137 0.59178,0.64202 -0.22607,0.95807 0.34528,-0.35161 0.78389,0.25938 1.2744,-0.5495 1.26927,1.43283 2.24565,1.87929 1.05921,1.1464 -1.2311,-0.4171 -1.79006,0.061 -0.89416,0.023 -1.66687,1.25829 -1.0956,1.52244 0.15161,0.68101 0.3144,-0.37082 0.4819,0.38751 0.35379,-0.51537 0.10878,-0.15708 0.36015,0.0727 0.79292,-0.7071 1.88529,0.39944 2.44568,1.02345 0.60158,0.72601 1.321,1.39175 2.02755,1.86281 -0.0784,1.11582 0.15662,2.22599 0.34977,3.30772 -0.0995,0.92871 0.95725,1.44625 1.08035,2.10025 -1.05355,0.22554 -1.61652,1.34435 -2.04235,2.24196 -0.46039,1.26571 -0.70504,2.61145 -1.41899,3.77686 -0.44518,1.29587 -1.94236,1.35542 -3.02999,1.64757 -0.73756,0.51692 -0.42641,1.22204 0.0239,1.46258 0.31127,-0.33636 0.35227,0.20777 0.68057,-0.0837 0.71563,0.0242 1.8307,-0.16656 2.60036,-0.46626 0.71408,-0.71536 1.54524,-1.05001 2.15381,-1.79527 0.70522,-0.73813 1.40382,-1.47422 1.7288,-2.46477 0.23504,-0.78376 0.73341,-0.65095 0.85105,0.0782 0.9632,0.18109 1.61717,0.71851 2.37002,1.17068 1.22616,0.39422 1.09052,1.69916 0.38889,2.53042 -0.4444,1.28439 -1.75126,0.82508 -2.66857,0.97072 -0.50867,0.28898 -0.73463,0.87873 -0.36385,1.01851 -0.0502,0.34731 0.74636,-0.10935 0.33137,0.49576 0.52911,0.10923 0.97787,0.40523 1.68027,-0.0747 1.00211,-0.0774 2.32181,0.0973 2.74446,-1.08606 0.65422,-0.80898 0.81426,-1.86089 1.37495,-2.73596 0.66339,-0.82483 0.6466,-2.17915 -0.65192,-2.19368 -0.33186,-1.0103 0.17503,-2.09311 0.0672,-3.15404 -0.0912,-0.76492 1.05859,0.50426 0.87212,-0.55705 0.17326,-1.04112 -0.47553,-1.92581 -0.38625,-2.85823 0.0791,-1.0054 -0.38025,-1.98798 -0.92393,-2.81351 0.0845,-0.78164 -0.50214,-1.66469 -0.5999,-2.54886 0.13088,-0.72104 -0.0364,-1.53004 -0.0248,-2.30434 -0.23274,-0.86861 -0.57273,-1.76737 -1.08819,-2.52242 0.56239,-0.48059 1.55348,-1.20249 1.00761,-2.02914 -0.25874,-0.59251 -1.68145,-0.56542 -0.72082,-1.27565 0.0622,-0.53522 -0.37202,-1.03063 -0.85678,-1.19288 z"
       id="path102" />
  </g>
</svg>
